<svg width="192" height="20" viewBox="0 0 192 20" fill="none" xmlns="http://www.w3.org/2000/svg">
<path fill-rule="evenodd" clip-rule="evenodd" d="M0 9.99992C0 4.47712 4.47712 0 9.99992 0H43.1461C47.657 0 51.4703 2.98677 52.7162 7.09058C52.9022 7.703 53.442 8.16325 54.082 8.16325C54.722 8.16325 55.2619 7.70302 55.4478 7.0906C56.6938 2.98687 60.507 0.000163078 65.0179 0.000163078H182C187.523 0.000163078 192 4.47728 192 10.0001C192 15.5229 187.523 20 182 20H65.0179C60.507 20 56.6937 17.0132 55.4477 12.9094C55.2618 12.2969 54.722 11.8367 54.082 11.8367C53.442 11.8367 52.9021 12.2969 52.7162 12.9093C51.4702 17.0131 47.657 19.9998 43.1461 19.9998H9.99993C4.47713 19.9998 0 15.5227 0 9.99992ZM66.1571 16V4.36364H73.7253V6.13068H68.265V9.28977H73.3332V11.0568H68.265V14.233H73.7707V16H66.1571ZM83.8758 4.36364H86.4554L89.9099 12.7955H90.0463L93.5008 4.36364H96.0804V16H94.0576V8.00568H93.9497L90.7338 15.9659H89.2224L86.0065 7.98864H85.8986V16H83.8758V4.36364ZM116.774 10.1818C116.774 11.4356 116.539 12.5095 116.069 13.4034C115.603 14.2936 114.967 14.9754 114.16 15.4489C113.357 15.9223 112.446 16.1591 111.427 16.1591C110.408 16.1591 109.495 15.9223 108.688 15.4489C107.885 14.9716 107.249 14.2879 106.779 13.3977C106.313 12.5038 106.08 11.4318 106.08 10.1818C106.08 8.92803 106.313 7.85606 106.779 6.96591C107.249 6.07197 107.885 5.38826 108.688 4.91477C109.495 4.44129 110.408 4.20455 111.427 4.20455C112.446 4.20455 113.357 4.44129 114.16 4.91477C114.967 5.38826 115.603 6.07197 116.069 6.96591C116.539 7.85606 116.774 8.92803 116.774 10.1818ZM114.654 10.1818C114.654 9.29924 114.516 8.55492 114.239 7.94886C113.967 7.33902 113.588 6.87879 113.103 6.56818C112.618 6.25379 112.06 6.09659 111.427 6.09659C110.794 6.09659 110.236 6.25379 109.751 6.56818C109.266 6.87879 108.885 7.33902 108.609 7.94886C108.336 8.55492 108.2 9.29924 108.2 10.1818C108.2 11.0644 108.336 11.8106 108.609 12.4205C108.885 13.0265 109.266 13.4867 109.751 13.8011C110.236 14.1117 110.794 14.267 111.427 14.267C112.06 14.267 112.618 14.1117 113.103 13.8011C113.588 13.4867 113.967 13.0265 114.239 12.4205C114.516 11.8106 114.654 11.0644 114.654 10.1818ZM131.357 4.36364H133.448V12.5455C133.444 13.2955 133.285 13.9413 132.971 14.483C132.657 15.0208 132.217 15.4356 131.653 15.7273C131.092 16.0152 130.439 16.1591 129.693 16.1591C129.011 16.1591 128.397 16.0379 127.852 15.7955C127.31 15.5492 126.88 15.1856 126.562 14.7045C126.244 14.2235 126.085 13.625 126.085 12.9091H128.181C128.185 13.2235 128.253 13.4943 128.386 13.7216C128.522 13.9489 128.71 14.1231 128.948 14.2443C129.187 14.3655 129.462 14.4261 129.772 14.4261C130.109 14.4261 130.395 14.3561 130.63 14.2159C130.865 14.072 131.043 13.8598 131.164 13.5795C131.289 13.2992 131.354 12.9545 131.357 12.5455V4.36364ZM145.843 16H143.735V4.36364H145.843V16ZM156.126 4.36364H163.58V6.13068H158.234V9.28977H163.069V11.0568H158.234V16H156.126V4.36364ZM172.705 4.36364H175.086L177.933 9.51136H178.046L180.893 4.36364H183.274L179.041 11.6591V16H176.938V11.6591L172.705 4.36364ZM16.875 6.0625H19.625C19.8529 6.0625 20.0715 6.16127 20.2327 6.33709C20.3938 6.5129 20.4844 6.75136 20.4844 7V13C20.4844 13.2486 20.3938 13.4871 20.2327 13.6629C20.0715 13.8387 19.8529 13.9375 19.625 13.9375H16.875C16.6471 13.9375 16.4285 14.0363 16.2673 14.2121C16.1062 14.3879 16.0156 14.6264 16.0156 14.875C16.0156 15.0242 15.9613 15.1673 15.8646 15.2727C15.7679 15.3782 15.6368 15.4375 15.5 15.4375C15.3632 15.4375 15.2321 15.3782 15.1354 15.2727C15.0387 15.1673 14.9844 15.0242 14.9844 14.875C14.9844 14.6264 14.8938 14.3879 14.7327 14.2121C14.5715 14.0363 14.3529 13.9375 14.125 13.9375H11.375C11.1471 13.9375 10.9285 13.8387 10.7673 13.6629C10.6062 13.4871 10.5156 13.2486 10.5156 13V7C10.5156 6.75136 10.6062 6.5129 10.7673 6.33709C10.9285 6.16127 11.1471 6.0625 11.375 6.0625H14.125C14.3827 6.06241 14.6377 6.11998 14.8742 6.23164C15.1107 6.34331 15.3237 6.5067 15.5 6.71172C15.6763 6.5067 15.8893 6.34331 16.1258 6.23164C16.3623 6.11998 16.6173 6.06241 16.875 6.0625ZM11.5469 12.8125H14.125C14.4238 12.8122 14.7184 12.8894 14.9844 13.038V8.125C14.9844 7.87636 14.8938 7.6379 14.7327 7.46209C14.5715 7.28627 14.3529 7.1875 14.125 7.1875H11.5469V12.8125ZM16.875 12.8125H19.4531V7.1875H16.875C16.6471 7.1875 16.4285 7.28627 16.2673 7.46209C16.1062 7.6379 16.0156 7.87636 16.0156 8.125V13.0389C16.2815 12.8899 16.5761 12.8123 16.875 12.8125ZM18.4219 8.5H17.0469C16.9101 8.5 16.779 8.55926 16.6823 8.66475C16.5856 8.77024 16.5312 8.91332 16.5312 9.0625C16.5312 9.21168 16.5856 9.35476 16.6823 9.46025C16.779 9.56574 16.9101 9.625 17.0469 9.625H18.4219C18.5586 9.625 18.6898 9.56574 18.7865 9.46025C18.8832 9.35476 18.9375 9.21168 18.9375 9.0625C18.9375 8.91332 18.8832 8.77024 18.7865 8.66475C18.6898 8.55926 18.5586 8.5 18.4219 8.5ZM18.7865 11.3352C18.8832 11.2298 18.9375 11.0867 18.9375 10.9375C18.9375 10.7883 18.8832 10.6452 18.7865 10.5398C18.6898 10.4343 18.5586 10.375 18.4219 10.375H17.0469C16.9101 10.375 16.779 10.4343 16.6823 10.5398C16.5856 10.6452 16.5312 10.7883 16.5312 10.9375C16.5312 11.0867 16.5856 11.2298 16.6823 11.3352C16.779 11.4407 16.9101 11.5 17.0469 11.5H18.4219C18.5586 11.5 18.6898 11.4407 18.7865 11.3352ZM26.4857 4.9375C25.2581 4.9375 24.0808 5.47087 23.2128 6.42027C22.3448 7.36967 21.8571 8.65734 21.8571 10C21.8571 11.3427 22.3448 12.6303 23.2128 13.5797C24.0808 14.5291 25.2581 15.0625 26.4857 15.0625C27.4401 15.0625 28.4438 14.747 29.1703 14.2188C29.2839 14.1361 29.3629 14.0075 29.3899 13.8612C29.4169 13.7149 29.3896 13.5628 29.3141 13.4385C29.2385 13.3142 29.1209 13.2278 28.9872 13.1983C28.8534 13.1688 28.7144 13.1986 28.6007 13.2812C28.0436 13.6858 27.234 13.9375 26.4857 13.9375C25.7737 13.9375 25.0777 13.7066 24.4857 13.2739C23.8936 12.8413 23.4322 12.2263 23.1597 11.5068C22.8873 10.7873 22.816 9.99563 22.9549 9.23183C23.0938 8.46803 23.4367 7.76644 23.9401 7.21577C24.4436 6.6651 25.085 6.29009 25.7834 6.13816C26.4817 5.98623 27.2055 6.0642 27.8634 6.36222C28.5212 6.66024 29.0834 7.16492 29.479 7.81244C29.8746 8.45996 30.0857 9.22124 30.0857 10C30.0857 10.4355 30.0141 10.8006 29.8847 11.0289C29.7716 11.2277 29.6276 11.3125 29.4 11.3125C29.1724 11.3125 29.0284 11.2277 28.9153 11.0289C28.7867 10.8006 28.7143 10.4355 28.7143 10V8.125C28.7143 7.99003 28.6699 7.85956 28.5892 7.75741C28.5086 7.65526 28.397 7.58823 28.2749 7.56856C28.1528 7.54889 28.0284 7.57789 27.9242 7.65027C27.82 7.72265 27.7431 7.83358 27.7076 7.96281C27.354 7.70869 26.9415 7.56991 26.5185 7.5627C26.0954 7.55549 25.6792 7.68014 25.3186 7.92209C24.9579 8.16405 24.6677 8.51329 24.4818 8.92901C24.2959 9.34472 24.2221 9.80972 24.2689 10.2696C24.3157 10.7296 24.4813 11.1654 24.7462 11.5262C25.0111 11.887 25.3645 12.1579 25.765 12.3071C26.1655 12.4564 26.5965 12.4779 27.0078 12.3691C27.419 12.2602 27.7934 12.0256 28.0873 11.6927C28.3843 12.1703 28.8347 12.4375 29.4 12.4375C30.4573 12.4375 31.1143 11.5037 31.1143 10C31.1129 8.6578 30.6248 7.371 29.7571 6.42192C28.8894 5.47284 27.7129 4.93899 26.4857 4.9375ZM26.4857 11.3125C26.2484 11.3125 26.0164 11.2355 25.819 11.0913C25.6217 10.9471 25.4679 10.7421 25.377 10.5023C25.2862 10.2624 25.2625 9.99854 25.3088 9.74394C25.3551 9.48934 25.4694 9.25548 25.6372 9.07192C25.805 8.88837 26.0188 8.76336 26.2516 8.71272C26.4844 8.66208 26.7256 8.68807 26.9449 8.78741C27.1642 8.88675 27.3516 9.05497 27.4835 9.27081C27.6153 9.48665 27.6857 9.74041 27.6857 10C27.6857 10.3481 27.5593 10.6819 27.3342 10.9281C27.1092 11.1742 26.804 11.3125 26.4857 11.3125ZM40.1523 7.57812H40.9688C41.1055 7.57812 41.2367 7.63245 41.3334 7.72915C41.43 7.82585 41.4844 7.957 41.4844 8.09375C41.4844 8.2305 41.43 8.36165 41.3334 8.45835C41.2367 8.55505 41.1055 8.60938 40.9688 8.60938H39.8516C40.0963 9.15041 40.1703 9.75316 40.0638 10.3373C39.9574 10.9215 39.6754 11.4594 39.2556 11.8793C38.764 12.3782 38.0808 12.8431 37.3461 13.2543L37.3229 13.2672C35.513 14.2761 33.4011 14.9602 33.0728 15.0641C32.9615 15.1144 32.8408 15.1404 32.7188 15.1406C32.5752 15.1406 32.4339 15.1045 32.3078 15.0358C32.1818 14.9671 32.0749 14.8679 31.9971 14.7473C31.9192 14.6266 31.8728 14.4884 31.8621 14.3452C31.8514 14.2021 31.8768 14.0585 31.9359 13.9276C32.082 13.4648 33.3826 9.455 35.125 7.74441C35.5446 7.32547 36.0817 7.04408 36.665 6.93763C37.2482 6.83118 37.8501 6.90471 38.3906 7.14844V6.03125C38.3906 5.8945 38.445 5.76335 38.5416 5.66665C38.6383 5.56995 38.7695 5.51562 38.9062 5.51562C39.043 5.51562 39.1742 5.56995 39.2709 5.66665C39.3675 5.76335 39.4219 5.8945 39.4219 6.03125V6.84766L40.2602 6.00934C40.3082 5.96137 40.3651 5.92333 40.4278 5.89737C40.4904 5.87141 40.5576 5.85805 40.6254 5.85805C40.6933 5.85805 40.7604 5.87141 40.8231 5.89737C40.8858 5.92333 40.9427 5.96137 40.9907 6.00934C41.0386 6.0573 41.0767 6.11424 41.1026 6.17691C41.1286 6.23957 41.1419 6.30674 41.1419 6.37457C41.1419 6.4424 41.1286 6.50957 41.1026 6.57223C41.0767 6.6349 41.0386 6.69184 40.9907 6.7398L40.1523 7.57812ZM38.5204 11.1536L38.5243 11.1497C38.8475 10.8271 39.0431 10.3984 39.0748 9.94285C39.1065 9.48728 38.9723 9.03562 38.6969 8.67132C38.4215 8.30703 38.0236 8.05473 37.5766 7.96104C37.1297 7.86735 36.6639 7.93861 36.2654 8.16164L37.5519 9.44812C37.6487 9.54499 37.7032 9.67637 37.7032 9.81336C37.7032 9.95035 37.6487 10.0817 37.5519 10.1786C37.455 10.2755 37.3236 10.3299 37.1866 10.3299C37.0497 10.3299 36.9183 10.2755 36.8214 10.1786L35.5023 8.85945C34.2755 10.3608 33.2864 13.1357 32.9955 14.0045C33.5596 13.8155 34.9278 13.3321 36.2293 12.6802L35.4464 11.8973C35.3495 11.8005 35.2951 11.6691 35.2951 11.5321C35.2951 11.3951 35.3495 11.2637 35.4464 11.1669C35.5433 11.07 35.6747 11.0156 35.8116 11.0156C35.9486 11.0156 36.08 11.07 36.1769 11.1669L37.1742 12.1642C37.6993 11.8496 38.1719 11.5093 38.5204 11.1536ZM9.39641 9.87523C9.42814 9.81485 9.44759 9.74878 9.45361 9.68083C9.45963 9.61288 9.4521 9.54442 9.43147 9.4794C9.41085 9.41438 9.37752 9.3541 9.33343 9.30205C9.28934 9.25 9.23536 9.20721 9.17462 9.17618C9.11387 9.14514 9.04758 9.12646 8.97956 9.12122C8.91155 9.11599 8.84318 9.1243 8.7784 9.14568C8.71362 9.16705 8.65373 9.20107 8.60219 9.24576C8.55066 9.29045 8.5085 9.34492 8.47816 9.40602C8.20615 9.93141 7.79501 10.372 7.28965 10.6796L6.70957 9.37379C6.97364 9.15351 7.17264 8.86537 7.28512 8.5404C7.39761 8.21543 7.41933 7.86593 7.34795 7.52953C7.27657 7.19313 7.11479 6.88257 6.88002 6.63128C6.64526 6.37999 6.3464 6.1975 6.01562 6.10344V5.51562C6.01562 5.37887 5.9613 5.24772 5.8646 5.15102C5.7679 5.05432 5.63675 5 5.5 5C5.36325 5 5.2321 5.05432 5.1354 5.15102C5.0387 5.24772 4.98437 5.37887 4.98437 5.51562V6.10344C4.6536 6.1975 4.35474 6.37999 4.11998 6.63128C3.88521 6.88257 3.72343 7.19313 3.65205 7.52953C3.58067 7.86593 3.60239 8.21543 3.71487 8.5404C3.82736 8.86537 4.02635 9.15351 4.29043 9.37379L2.27734 13.8997C2.24962 13.9618 2.23445 14.0287 2.23269 14.0966C2.23094 14.1646 2.24264 14.2322 2.26712 14.2956C2.2916 14.3591 2.32837 14.417 2.37533 14.4662C2.42229 14.5153 2.47851 14.5547 2.54074 14.582C2.60668 14.611 2.67799 14.6256 2.75 14.625C2.85001 14.6253 2.94794 14.5965 3.03186 14.5421C3.11578 14.4877 3.18207 14.41 3.22266 14.3186L4.23973 12.0301C4.64804 12.1556 5.07284 12.2192 5.5 12.2188C5.92772 12.2183 6.35311 12.1558 6.76285 12.0331L7.77734 14.3186C7.81793 14.41 7.88422 14.4877 7.96814 14.5421C8.05206 14.5965 8.14999 14.6253 8.25 14.625C8.32186 14.6256 8.39303 14.6109 8.45883 14.582C8.5211 14.5547 8.57736 14.5154 8.62436 14.4662C8.67137 14.4171 8.70819 14.3592 8.73271 14.2958C8.75723 14.2323 8.76897 14.1647 8.76724 14.0967C8.76552 14.0287 8.75036 13.9618 8.72266 13.8997L7.71246 11.6266C8.43151 11.2182 9.0165 10.6098 9.39641 9.87523ZM5.5 7.0625C5.66997 7.0625 5.83612 7.1129 5.97744 7.20733C6.11877 7.30176 6.22891 7.43598 6.29396 7.59301C6.359 7.75004 6.37602 7.92283 6.34286 8.08953C6.3097 8.25623 6.22786 8.40936 6.10767 8.52954C5.98748 8.64973 5.83436 8.73158 5.66766 8.76474C5.50095 8.7979 5.32816 8.78088 5.17113 8.71583C5.0141 8.65079 4.87988 8.54064 4.78546 8.39932C4.69103 8.25799 4.64062 8.09184 4.64062 7.92188C4.64062 7.69395 4.73117 7.47537 4.89233 7.31421C5.05349 7.15304 5.27208 7.0625 5.5 7.0625ZM5.5 11.1875C5.21688 11.1879 4.93492 11.1513 4.66125 11.0788L5.23273 9.79316C5.40998 9.81895 5.59002 9.81895 5.76727 9.79316L6.34004 11.0822C6.06551 11.1522 5.78331 11.1876 5.5 11.1875ZM43.7083 6.25C43.133 6.25 42.6667 6.71637 42.6667 7.29167C42.6667 7.62676 42.8249 7.92545 43.0717 8.11627C43.2085 8.03185 43.3519 7.95343 43.501 7.88144C43.2577 7.79591 43.0833 7.56415 43.0833 7.29167C43.0833 6.94649 43.3632 6.66667 43.7083 6.66667C44.0535 6.66667 44.3333 6.94649 44.3333 7.29167C44.3333 7.3982 44.3067 7.4985 44.2597 7.58628C44.4146 7.53919 44.5736 7.49829 44.7359 7.46391C44.7452 7.40803 44.75 7.3505 44.75 7.29167C44.75 6.71637 44.2836 6.25 43.7083 6.25ZM45.5825 7.34721C45.583 7.32876 45.5833 7.31024 45.5833 7.29167C45.5833 6.25613 44.7439 5.41667 43.7083 5.41667C42.6728 5.41667 41.8333 6.25613 41.8333 7.29167C41.8333 7.817 42.0494 8.29145 42.3968 8.63157C41.7976 9.19854 41.4167 9.92925 41.4167 10.75C41.4167 11.7464 41.9784 12.6105 42.8103 13.2095C43.6428 13.8089 44.7718 14.1667 46 14.1667C47.2282 14.1667 48.3573 13.8089 49.1898 13.2095C50.0216 12.6105 50.5833 11.7464 50.5833 10.75C50.5833 9.92925 50.2024 9.19854 49.6032 8.63157C49.9506 8.29145 50.1667 7.817 50.1667 7.29167C50.1667 6.25613 49.3272 5.41667 48.2917 5.41667C47.2561 5.41667 46.4167 6.25613 46.4167 7.29167C46.4167 7.31024 46.417 7.32876 46.4175 7.34721C46.2799 7.33803 46.1407 7.33334 46 7.33334C45.8593 7.33334 45.7201 7.33803 45.5825 7.34721ZM48.499 7.88144C48.6481 7.95343 48.7915 8.03185 48.9283 8.11627C49.1751 7.92545 49.3333 7.62676 49.3333 7.29167C49.3333 6.71637 48.867 6.25 48.2917 6.25C47.7164 6.25 47.25 6.71637 47.25 7.29167C47.25 7.3505 47.2548 7.40803 47.2641 7.46391C47.4265 7.49829 47.5854 7.53919 47.7403 7.58628C47.6933 7.4985 47.6667 7.3982 47.6667 7.29167C47.6667 6.94649 47.9465 6.66667 48.2917 6.66667C48.6368 6.66667 48.9167 6.94649 48.9167 7.29167C48.9167 7.56415 48.7423 7.79591 48.499 7.88144ZM46 8.16667C45.7014 8.16667 45.4114 8.191 45.1336 8.23681C44.427 8.35336 43.8048 8.60797 43.322 8.9491C42.6302 9.43796 42.25 10.0816 42.25 10.75C42.25 11.4104 42.621 12.0463 43.2972 12.5332C43.9727 13.0196 44.927 13.3333 46 13.3333C47.073 13.3333 48.0273 13.0196 48.7028 12.5332C49.379 12.0463 49.75 11.4104 49.75 10.75C49.75 10.0816 49.3698 9.43796 48.678 8.9491C48.1953 8.60797 47.573 8.35336 46.8664 8.23681C46.5886 8.191 46.2986 8.16667 46 8.16667ZM44.2016 10.0214C44.4169 9.94963 44.6494 10.0634 44.7256 10.276C44.7308 10.2885 44.7803 10.3998 44.917 10.517C45.0779 10.6549 45.396 10.8333 46 10.8333C46.6041 10.8333 46.9221 10.6549 47.083 10.517C47.2197 10.3998 47.2692 10.2885 47.2745 10.276C47.3506 10.0634 47.5831 9.94963 47.7985 10.0214C48.0168 10.0942 48.1348 10.3301 48.062 10.5485C47.9765 10.7833 47.8135 10.9884 47.6253 11.1497C47.3002 11.4284 46.7848 11.6667 46 11.6667C45.2152 11.6667 44.6999 11.4284 44.3747 11.1497C44.1824 10.9849 44.0319 10.7832 43.9381 10.5485C43.8653 10.3301 43.9833 10.0942 44.2016 10.0214Z" fill="url(#paint0_linear_1_2)"/>
<defs>
<linearGradient id="paint0_linear_1_2" x1="7.45273" y1="-6.6526" x2="215.525" y2="-6.6526" gradientUnits="userSpaceOnUse">
<stop offset="0.251308" stop-color="#616161"/>
<stop offset="0.623787" stop-color="#CECA6E"/>
<stop offset="1" stop-color="#E6CC00"/>
</linearGradient>
</defs>
</svg>
