<svg width="192" height="20" viewBox="0 0 192 20" fill="none" xmlns="http://www.w3.org/2000/svg">
<path fill-rule="evenodd" clip-rule="evenodd" d="M9.99992 0C4.47712 0 0 4.47712 0 9.99992C0 15.5227 4.47713 19.9998 9.99993 19.9998H43.1461C47.657 19.9998 51.4702 17.0131 52.7162 12.9093C52.9021 12.2969 53.442 11.8367 54.082 11.8367C54.722 11.8367 55.2618 12.2969 55.4477 12.9094C56.6937 17.0132 60.507 20 65.0179 20H182C187.523 20 192 15.5229 192 10.0001C192 4.47728 187.523 0.000163078 182 0.000163078H65.0179C60.507 0.000163078 56.6938 2.98687 55.4478 7.0906C55.2619 7.70302 54.722 8.16325 54.082 8.16325C53.442 8.16325 52.9022 7.703 52.7162 7.09058C51.4703 2.98677 47.657 0 43.1461 0H9.99992ZM66.1571 4.36364V16H73.7707V14.233H68.265V11.0568H73.3332V9.28977H68.265V6.13068H73.7253V4.36364H66.1571ZM86.4554 4.36364H83.8758V16H85.8986V7.98864H86.0065L89.2224 15.9659H90.7338L93.9497 8.00568H94.0576V16H96.0804V4.36364H93.5008L90.0463 12.7955H89.9099L86.4554 4.36364ZM116.069 13.4034C116.539 12.5095 116.774 11.4356 116.774 10.1818C116.774 8.92803 116.539 7.85606 116.069 6.96591C115.603 6.07197 114.967 5.38826 114.16 4.91477C113.357 4.44129 112.446 4.20455 111.427 4.20455C110.408 4.20455 109.495 4.44129 108.688 4.91477C107.885 5.38826 107.249 6.07197 106.779 6.96591C106.313 7.85606 106.08 8.92803 106.08 10.1818C106.08 11.4318 106.313 12.5038 106.779 13.3977C107.249 14.2879 107.885 14.9716 108.688 15.4489C109.495 15.9223 110.408 16.1591 111.427 16.1591C112.446 16.1591 113.357 15.9223 114.16 15.4489C114.967 14.9754 115.603 14.2936 116.069 13.4034ZM114.239 7.94886C114.516 8.55492 114.654 9.29924 114.654 10.1818C114.654 11.0644 114.516 11.8106 114.239 12.4205C113.967 13.0265 113.588 13.4867 113.103 13.8011C112.618 14.1117 112.06 14.267 111.427 14.267C110.794 14.267 110.236 14.1117 109.751 13.8011C109.266 13.4867 108.885 13.0265 108.609 12.4205C108.336 11.8106 108.2 11.0644 108.2 10.1818C108.2 9.29924 108.336 8.55492 108.609 7.94886C108.885 7.33902 109.266 6.87879 109.751 6.56818C110.236 6.25379 110.794 6.09659 111.427 6.09659C112.06 6.09659 112.618 6.25379 113.103 6.56818C113.588 6.87879 113.967 7.33902 114.239 7.94886ZM133.448 4.36364H131.357V12.5455C131.354 12.9545 131.289 13.2992 131.164 13.5795C131.043 13.8598 130.865 14.072 130.63 14.2159C130.395 14.3561 130.109 14.4261 129.772 14.4261C129.462 14.4261 129.187 14.3655 128.948 14.2443C128.71 14.1231 128.522 13.9489 128.386 13.7216C128.253 13.4943 128.185 13.2235 128.181 12.9091H126.085C126.085 13.625 126.244 14.2235 126.562 14.7045C126.88 15.1856 127.31 15.5492 127.852 15.7955C128.397 16.0379 129.011 16.1591 129.693 16.1591C130.439 16.1591 131.092 16.0152 131.653 15.7273C132.217 15.4356 132.657 15.0208 132.971 14.483C133.285 13.9413 133.444 13.2955 133.448 12.5455V4.36364ZM143.735 16H145.843V4.36364H143.735V16ZM163.58 4.36364H156.126V16H158.234V11.0568H163.069V9.28977H158.234V6.13068H163.58V4.36364ZM175.086 4.36364H172.705L176.938 11.6591V16H179.041V11.6591L183.274 4.36364H180.893L178.046 9.51136H177.933L175.086 4.36364ZM11.9694 9.76483V7.6498L6.92468 9.82386H6.91427V11.9934H6.92468L11.9694 14.1663V12.049L9.38355 10.9046L11.9694 9.76596V9.76483ZM41.3593 11.94V14.0539L46.3968 11.8935H46.4093V9.72169H46.3968L41.3593 7.5499V9.66493L43.9431 10.8025L41.3593 11.94ZM36.2334 15.5763L39.1961 4.56071H40.9554L37.9927 15.5763H36.2334ZM24 6.40625H20.8C20.5001 6.40614 20.2034 6.47331 19.9282 6.60358C19.653 6.73386 19.4051 6.92448 19.2 7.16367C18.9948 6.92448 18.7469 6.73386 18.4717 6.60358C18.1965 6.47331 17.8998 6.40614 17.6 6.40625H14.4C14.1348 6.40625 13.8804 6.52148 13.6929 6.7266C13.5053 6.93172 13.4 7.20992 13.4 7.5V14.5C13.4 14.7901 13.5053 15.0683 13.6929 15.2734C13.8804 15.4785 14.1348 15.5938 14.4 15.5938H17.6C17.8652 15.5938 18.1195 15.709 18.3071 15.9141C18.4946 16.1192 18.6 16.3974 18.6 16.6875C18.6 16.8615 18.6632 17.0285 18.7757 17.1515C18.8882 17.2746 19.0408 17.3438 19.2 17.3438C19.3591 17.3438 19.5117 17.2746 19.6242 17.1515C19.7367 17.0285 19.8 16.8615 19.8 16.6875C19.8 16.3974 19.9053 16.1192 20.0929 15.9141C20.2804 15.709 20.5347 15.5938 20.8 15.5938H24C24.2652 15.5938 24.5195 15.4785 24.7071 15.2734C24.8946 15.0683 25 14.7901 25 14.5V7.5C25 7.20992 24.8946 6.93172 24.7071 6.7266C24.5195 6.52148 24.2652 6.40625 24 6.40625ZM17.6 14.2812H14.6V7.71875H17.6C17.8652 7.71875 18.1195 7.83398 18.3071 8.0391C18.4946 8.24422 18.6 8.52242 18.6 8.8125V14.5443C18.2905 14.371 17.9477 14.2808 17.6 14.2812ZM23.8 14.2812H20.8C20.4522 14.281 20.1093 14.3716 19.8 14.5454V8.8125C19.8 8.52242 19.9053 8.24422 20.0929 8.0391C20.2804 7.83398 20.5347 7.71875 20.8 7.71875H23.8V14.2812ZM21 9.25H22.6C22.7591 9.25 22.9117 9.31914 23.0242 9.44221C23.1367 9.56528 23.2 9.7322 23.2 9.90625C23.2 10.0803 23.1367 10.2472 23.0242 10.3703C22.9117 10.4934 22.7591 10.5625 22.6 10.5625H21C20.8408 10.5625 20.6882 10.4934 20.5757 10.3703C20.4632 10.2472 20.4 10.0803 20.4 9.90625C20.4 9.7322 20.4632 9.56528 20.5757 9.44221C20.6882 9.31914 20.8408 9.25 21 9.25ZM23.2 12.0938C23.2 12.2678 23.1367 12.4347 23.0242 12.5578C22.9117 12.6809 22.7591 12.75 22.6 12.75H21C20.8408 12.75 20.6882 12.6809 20.5757 12.5578C20.4632 12.4347 20.4 12.2678 20.4 12.0938C20.4 11.9197 20.4632 11.7528 20.5757 11.6297C20.6882 11.5066 20.8408 11.4375 21 11.4375H22.6C22.7591 11.4375 22.9117 11.5066 23.0242 11.6297C23.1367 11.7528 23.2 11.9197 23.2 12.0938ZM27.8128 7.42027C28.6808 6.47087 29.8581 5.9375 31.0857 5.9375C32.3128 5.93899 33.4893 6.47284 34.357 7.42192C35.2248 8.371 35.7129 9.6578 35.7142 11C35.7142 12.5037 35.0572 13.4375 33.9999 13.4375C33.4346 13.4375 32.9842 13.1703 32.6872 12.6927C32.3934 13.0256 32.019 13.2602 31.6077 13.3691C31.1965 13.4779 30.7654 13.4564 30.3649 13.3071C29.9645 13.1579 29.6111 12.887 29.3461 12.5262C29.0812 12.1654 28.9156 11.7296 28.8688 11.2696C28.822 10.8097 28.8959 10.3447 29.0817 9.92901C29.2676 9.51329 29.5579 9.16405 29.9185 8.92209C30.2792 8.68014 30.6954 8.55549 31.1184 8.5627C31.5415 8.56991 31.9539 8.70869 32.3075 8.96281C32.3431 8.83358 32.42 8.72265 32.5242 8.65027C32.6283 8.57789 32.7528 8.54889 32.8749 8.56856C32.997 8.58823 33.1085 8.65526 33.1892 8.75741C33.2698 8.85956 33.3142 8.99003 33.3142 9.125V11C33.3142 11.4355 33.3867 11.8006 33.5152 12.0289C33.6284 12.2277 33.7724 12.3125 33.9999 12.3125C34.2275 12.3125 34.3715 12.2277 34.4846 12.0289C34.6141 11.8006 34.6856 11.4355 34.6856 11C34.6856 10.2212 34.4745 9.45996 34.0789 8.81244C33.6834 8.16492 33.1211 7.66024 32.4633 7.36222C31.8055 7.0642 31.0817 6.98623 30.3833 7.13816C29.685 7.29009 29.0435 7.6651 28.5401 8.21577C28.0366 8.76644 27.6937 9.46803 27.5548 10.2318C27.4159 10.9956 27.4872 11.7873 27.7597 12.5068C28.0322 13.2263 28.4936 13.8413 29.0856 14.2739C29.6776 14.7066 30.3736 14.9375 31.0857 14.9375C31.8339 14.9375 32.6435 14.6858 33.2006 14.2812C33.3143 14.1986 33.4533 14.1688 33.5871 14.1983C33.7209 14.2278 33.8385 14.3142 33.914 14.4385C33.9895 14.5628 34.0168 14.7149 33.9899 14.8612C33.9629 15.0075 33.8839 15.1361 33.7702 15.2188C33.0438 15.747 32.0401 16.0625 31.0857 16.0625C29.8581 16.0625 28.6808 15.5291 27.8128 14.5797C26.9447 13.6303 26.4571 12.3427 26.4571 11C26.4571 9.65734 26.9447 8.36967 27.8128 7.42027ZM30.419 12.0913C30.6163 12.2355 30.8483 12.3125 31.0857 12.3125C31.4039 12.3125 31.7091 12.1742 31.9342 11.9281C32.1592 11.6819 32.2857 11.3481 32.2857 11C32.2857 10.7404 32.2153 10.4867 32.0834 10.2708C31.9516 10.055 31.7641 9.88675 31.5449 9.78741C31.3256 9.68807 31.0843 9.66208 30.8515 9.71272C30.6188 9.76336 30.4049 9.88837 30.2371 10.0719C30.0693 10.2555 29.955 10.4893 29.9087 10.7439C29.8624 10.9985 29.8862 11.2624 29.977 11.5023C30.0678 11.7421 30.2216 11.9471 30.419 12.0913Z" fill="url(#paint0_linear_1_2)"/>
<defs>
<linearGradient id="paint0_linear_1_2" x1="3.18129" y1="-6.6526" x2="216.069" y2="-6.6526" gradientUnits="userSpaceOnUse">
<stop offset="0.251308" stop-color="#616161"/>
<stop offset="0.623787" stop-color="#CECA6E"/>
<stop offset="1" stop-color="#E6CC00"/>
</linearGradient>
</defs>
</svg>
